# xmcd
# 
# Track frame offsets:
#     150
#     11272
#     28547
#     46942
#     68540
#     82637
#     92297
#     106987
#     124245
#     140235
#     152650
#     169987
#     181380
#     193777
#     207520
#     223577
#     237292
#     258792
#     272662
#     284717
# 
# Disc length: 4066
# 
# Revision: 6
# Processed by: cddbd v1.5.2PL0 Copyright (c) Steve Scherf et al.
# Submitted via: fre:ac v1.0.17
# 
DISCID=150fe014
DTITLE=Willie Nelson - Revolutions Of Time:  Sojourns
DYEAR=1995
DGENRE=Country
TTITLE0=Summertime (with Leon Russel)
TTITLE1=Faded Love (with Ray Price)
TTITLE2=Night Life (with Ray Price)
TTITLE3=Pancho And Lefty (with Merle Haggard)
TTITLE4=Old Friends (with Roger Miller and Ray Price)
TTITLE5=In The Jailhouse Now (with Webb Pierce)
TTITLE6=Everything's Beautiful (In It's Own Way) (with Dolly Parton)
TTITLE7=Take It To The Limit (with Waylon Jennings)
TTITLE8=To All The Girls I've Loved Before (with Julio Iglesias)
TTITLE9=How Do You Feel About Foolin' Around (with Kris Kristofferson)
TTITLE10=Seven Spanish Angels (with Ray Charles)
TTITLE11=Hello Walls (with Faron Young)
TTITLE12=I'm Movin' On (with Hank Snow)
TTITLE13=Highwayman (with Johnny Cash, Waylon Jennings and Kris Kristofferson)
TTITLE14=Slow Movin' Outlaw (with Lacy J. Dalton)
TTITLE15=Are There Anymore Real Cowboys (with Neil Young)
TTITLE16=They All Went To Mexico (with Carlos Santana)
TTITLE17=Half A Man (with George Jones)
TTITLE18=Texas On A Saturday Night (with Mel Tillis)
TTITLE19=Heartland (with Bob Dylan)
EXTD=YEAR: 1995
EXTT0=wi Leon Russel
EXTT1=wi Ray Price
EXTT2=wi Ray Price
EXTT3=wi Merle Haggard
EXTT4=wi Roger Miller and Ray Price
EXTT5=wi Webb Pierce
EXTT6=wi Dolly Parton
EXTT7=wi Waylon Jennings
EXTT8=wi Julio Iglesias
EXTT9=wi Kris Kristofferson
EXTT10=wi Ray Charles
EXTT11=wi Faron Young
EXTT12=wi Hank Snow
EXTT13=wi Johnny Cash, Waylon Jennings, Kris Kristofferson
EXTT14=wi Lacy J. Dalton
EXTT15=wi Neil Young
EXTT16=wi Carlos Santana
EXTT17=wi George Jones
EXTT18=wi Mel Tillis
EXTT19=wi Bob Dylan
PLAYORDER=
